<?xml version="1.0" encoding="utf-8"?>
<!-- Generator: Adobe Illustrator 25.2.3, SVG Export Plug-In . SVG Version: 6.00 Build 0)  -->
<svg version="1.1" id="_x32_" xmlns="http://www.w3.org/2000/svg" xmlns:xlink="http://www.w3.org/1999/xlink" x="0px" y="0px"
	 viewBox="0 0 5139.1 512" style="enable-background:new 0 0 5139.1 512;" xml:space="preserve">
<style type="text/css">
	.st0{stroke:#000000;stroke-width:60;stroke-miterlimit:10;stroke-dasharray:200,100;}
	.st1{fill:#231815;stroke:#000000;stroke-width:60;stroke-miterlimit:10;stroke-dasharray:200,100;}
</style>
<g>
	<g>
		<path d="M2813.3,210l-55.9-2.6c-5.1-0.2-9.6-3.4-11.5-8.1l-11.5-27.7c-1.9-4.7-1-10.1,2.5-13.9l37.7-41.3
			c4.7-5.2,4.5-13.2-0.4-18.2l-46.4-46.4c-5-5-13-5.2-18.2-0.4L2668.2,89c-3.8,3.4-9.2,4.4-13.9,2.4L2626.6,80
			c-4.7-1.9-7.9-6.5-8.1-11.6l-2.6-55.8c-0.3-7-6.1-12.6-13.1-12.6H2537c-7,0-12.8,5.5-13.2,12.6l-2.6,55.8
			c-0.2,5.1-3.4,9.6-8.1,11.6l-27.7,11.5c-4.7,2-10.2,1-13.9-2.4l-41.3-37.7c-5.2-4.7-13.2-4.6-18.2,0.4l-46.4,46.4
			c-5,5-5.2,13-0.4,18.2l37.7,41.3c3.5,3.8,4.4,9.2,2.4,13.9l-11.5,27.7c-2,4.7-6.4,7.9-11.6,8.1l-55.8,2.6
			c-7,0.3-12.6,6.1-12.6,13.1v65.7c0,7,5.5,12.8,12.6,13.1l55.8,2.6c5.1,0.2,9.6,3.4,11.6,8.1l11.5,27.7c2,4.7,1,10.1-2.4,13.9
			l-37.7,41.3c-4.8,5.2-4.6,13.2,0.4,18.2l46.5,46.4c5,5,13,5.1,18.2,0.4l41.3-37.7c3.8-3.4,9.2-4.4,13.9-2.4l27.7,11.5
			c4.7,2,7.9,6.5,8.1,11.6l2.6,55.8c0.3,7,6.1,12.6,13.2,12.6h65.7c7,0,12.8-5.5,13.1-12.6l2.6-55.8c0.2-5.1,3.4-9.6,8.1-11.6
			l27.7-11.5c4.7-2,10.1-1,13.9,2.4l41.3,37.7c5.2,4.7,13.2,4.6,18.2-0.4l46.4-46.4c5-5,5.1-13,0.4-18.2l-37.7-41.3
			c-3.5-3.8-4.4-9.2-2.5-13.9l11.5-27.7c1.9-4.7,6.4-7.9,11.5-8.1l55.9-2.6c7-0.3,12.5-6.1,12.5-13.1v-65.7
			C2825.9,216.1,2820.4,210.3,2813.3,210z M2569.9,339.6c-46.2,0-83.6-37.4-83.6-83.6c0-46.2,37.5-83.6,83.6-83.6
			c46.2,0,83.6,37.4,83.6,83.6C2653.5,302.2,2616.1,339.6,2569.9,339.6z"/>
	</g>
	<line class="st0" x1="310.5" y1="256" x2="1940.4" y2="256"/>
	<line class="st0" x1="3177.2" y1="256" x2="4807.1" y2="256"/>
</g>
<path class="st1" d="M1997.6,680.5"/>
</svg>
