<?xml version="1.0" encoding="UTF-8"?>
<svg xmlns="http://www.w3.org/2000/svg" xmlns:xlink="http://www.w3.org/1999/xlink" width="200pt" height="20pt" viewBox="0 0 200 20" version="1.1">
<g id="surface1">
<path style=" stroke:none;fill-rule:nonzero;fill:rgb(0%,0%,0%);fill-opacity:1;" d="M 109.484375 8.203125 L 107.3125 8.101562 C 107.113281 8.09375 106.9375 7.96875 106.863281 7.785156 L 106.414062 6.703125 C 106.339844 6.519531 106.375 6.308594 106.511719 6.160156 L 107.980469 4.546875 C 108.164062 4.34375 108.15625 4.03125 107.964844 3.835938 L 106.160156 2.023438 C 105.964844 1.828125 105.652344 1.820312 105.449219 2.007812 L 103.839844 3.476562 C 103.691406 3.609375 103.480469 3.648438 103.296875 3.570312 L 102.21875 3.125 C 102.039062 3.050781 101.914062 2.871094 101.90625 2.671875 L 101.804688 0.492188 C 101.792969 0.21875 101.566406 0 101.292969 0 L 98.734375 0 C 98.460938 0 98.234375 0.214844 98.21875 0.492188 L 98.117188 2.671875 C 98.109375 2.871094 97.984375 3.046875 97.804688 3.125 L 96.726562 3.574219 C 96.542969 3.652344 96.328125 3.613281 96.183594 3.480469 L 94.578125 2.007812 C 94.375 1.824219 94.0625 1.828125 93.867188 2.023438 L 92.0625 3.835938 C 91.867188 4.03125 91.859375 4.34375 92.046875 4.546875 L 93.515625 6.160156 C 93.652344 6.308594 93.6875 6.519531 93.609375 6.703125 L 93.160156 7.785156 C 93.082031 7.96875 92.910156 8.09375 92.707031 8.101562 L 90.539062 8.203125 C 90.265625 8.214844 90.046875 8.441406 90.046875 8.714844 L 90.046875 11.28125 C 90.046875 11.554688 90.261719 11.78125 90.539062 11.792969 L 92.707031 11.894531 C 92.90625 11.902344 93.082031 12.027344 93.160156 12.210938 L 93.609375 13.292969 C 93.6875 13.476562 93.648438 13.6875 93.515625 13.835938 L 92.046875 15.449219 C 91.859375 15.652344 91.867188 15.964844 92.0625 16.160156 L 93.871094 17.972656 C 94.066406 18.167969 94.378906 18.171875 94.582031 17.988281 L 96.1875 16.515625 C 96.335938 16.382812 96.546875 16.34375 96.730469 16.421875 L 97.808594 16.871094 C 97.988281 16.949219 98.113281 17.125 98.121094 17.324219 L 98.222656 19.503906 C 98.234375 19.777344 98.460938 19.996094 98.738281 19.996094 L 101.292969 19.996094 C 101.566406 19.996094 101.792969 19.78125 101.804688 19.503906 L 101.90625 17.324219 C 101.914062 17.125 102.039062 16.949219 102.21875 16.871094 L 103.296875 16.421875 C 103.480469 16.34375 103.691406 16.382812 103.839844 16.515625 L 105.445312 17.988281 C 105.648438 18.171875 105.960938 18.167969 106.15625 17.972656 L 107.960938 16.160156 C 108.15625 15.964844 108.160156 15.652344 107.976562 15.449219 L 106.507812 13.835938 C 106.371094 13.6875 106.335938 13.476562 106.410156 13.292969 L 106.859375 12.210938 C 106.933594 12.027344 107.109375 11.902344 107.308594 11.894531 L 109.480469 11.792969 C 109.753906 11.78125 109.96875 11.554688 109.96875 11.28125 L 109.96875 8.714844 C 109.976562 8.441406 109.761719 8.214844 109.484375 8.203125 Z M 100.011719 13.265625 C 98.214844 13.265625 96.761719 11.804688 96.761719 10 C 96.761719 8.195312 98.21875 6.734375 100.011719 6.734375 C 101.8125 6.734375 103.265625 8.195312 103.265625 10 C 103.265625 11.804688 101.8125 13.265625 100.011719 13.265625 Z M 100.011719 13.265625 "/>
<path style="fill:none;stroke-width:60;stroke-linecap:butt;stroke-linejoin:miter;stroke:rgb(0%,0%,0%);stroke-opacity:1;stroke-dasharray:200,100;stroke-miterlimit:10;" d="M 310.453834 256 L 1940.411742 256 " transform="matrix(0.0389173,0,0,0.0390617,0,0.000194587)"/>
<path style="fill:none;stroke-width:60;stroke-linecap:butt;stroke-linejoin:miter;stroke:rgb(0%,0%,0%);stroke-opacity:1;stroke-dasharray:200,100;stroke-miterlimit:10;" d="M 3177.208426 256 L 4807.065961 256 " transform="matrix(0.0389173,0,0,0.0390617,0,0.000194587)"/>
</g>
</svg>
