<?xml version="1.0" encoding="UTF-8"?>
<svg xmlns="http://www.w3.org/2000/svg" xmlns:xlink="http://www.w3.org/1999/xlink" width="100pt" height="10pt" viewBox="0 0 100 10" version="1.1">
<g id="surface1">
<path style=" stroke:none;fill-rule:nonzero;fill:rgb(0%,0%,0%);fill-opacity:1;" d="M 54.742188 4.101562 L 53.65625 4.050781 C 53.554688 4.046875 53.46875 3.984375 53.429688 3.894531 L 53.207031 3.351562 C 53.171875 3.261719 53.1875 3.15625 53.257812 3.082031 L 53.988281 2.273438 C 54.082031 2.171875 54.078125 2.015625 53.980469 1.917969 L 53.078125 1.011719 C 52.980469 0.914062 52.828125 0.910156 52.726562 1.003906 L 51.917969 1.738281 C 51.84375 1.804688 51.742188 1.824219 51.648438 1.785156 L 51.109375 1.5625 C 51.019531 1.527344 50.957031 1.4375 50.953125 1.335938 L 50.902344 0.246094 C 50.894531 0.109375 50.785156 0 50.648438 0 L 49.367188 0 C 49.230469 0 49.117188 0.109375 49.109375 0.246094 L 49.058594 1.335938 C 49.054688 1.4375 48.992188 1.523438 48.902344 1.5625 L 48.363281 1.789062 C 48.269531 1.828125 48.164062 1.808594 48.09375 1.742188 L 47.289062 1.003906 C 47.1875 0.914062 47.03125 0.914062 46.933594 1.011719 L 46.03125 1.917969 C 45.933594 2.015625 45.929688 2.171875 46.023438 2.273438 L 46.757812 3.082031 C 46.824219 3.15625 46.84375 3.261719 46.804688 3.351562 L 46.582031 3.894531 C 46.542969 3.984375 46.457031 4.046875 46.355469 4.050781 L 45.269531 4.101562 C 45.132812 4.109375 45.023438 4.222656 45.023438 4.359375 L 45.023438 5.640625 C 45.023438 5.777344 45.128906 5.890625 45.269531 5.894531 L 46.355469 5.945312 C 46.453125 5.949219 46.542969 6.011719 46.582031 6.105469 L 46.804688 6.644531 C 46.84375 6.738281 46.824219 6.84375 46.757812 6.917969 L 46.023438 7.722656 C 45.929688 7.824219 45.933594 7.980469 46.03125 8.078125 L 46.9375 8.984375 C 47.035156 9.082031 47.1875 9.085938 47.289062 8.992188 L 48.09375 8.257812 C 48.167969 8.191406 48.273438 8.171875 48.363281 8.210938 L 48.902344 8.433594 C 48.996094 8.472656 49.058594 8.5625 49.0625 8.660156 L 49.113281 9.75 C 49.117188 9.886719 49.230469 9.996094 49.367188 9.996094 L 50.648438 9.996094 C 50.785156 9.996094 50.894531 9.890625 50.902344 9.75 L 50.953125 8.660156 C 50.957031 8.5625 51.019531 8.472656 51.109375 8.433594 L 51.648438 8.210938 C 51.742188 8.171875 51.84375 8.191406 51.917969 8.257812 L 52.722656 8.992188 C 52.824219 9.085938 52.980469 9.082031 53.078125 8.984375 L 53.980469 8.078125 C 54.078125 7.980469 54.078125 7.824219 53.988281 7.722656 L 53.253906 6.917969 C 53.1875 6.84375 53.167969 6.738281 53.207031 6.644531 L 53.429688 6.105469 C 53.464844 6.011719 53.554688 5.949219 53.652344 5.945312 L 54.742188 5.894531 C 54.878906 5.890625 54.984375 5.777344 54.984375 5.640625 L 54.984375 4.359375 C 54.988281 4.222656 54.882812 4.109375 54.742188 4.101562 Z M 50.007812 6.632812 C 49.109375 6.632812 48.378906 5.902344 48.378906 5 C 48.378906 4.097656 49.109375 3.367188 50.007812 3.367188 C 50.90625 3.367188 51.632812 4.097656 51.632812 5 C 51.632812 5.902344 50.90625 6.632812 50.007812 6.632812 Z M 50.007812 6.632812 "/>
<path style="fill:none;stroke-width:60;stroke-linecap:butt;stroke-linejoin:miter;stroke:rgb(0%,0%,0%);stroke-opacity:1;stroke-dasharray:200,100;stroke-miterlimit:10;" d="M 310.554207 256 L 1940.411742 256 " transform="matrix(0.0194587,0,0,0.0195309,0,0.0000972933)"/>
<path style="fill:none;stroke-width:60;stroke-linecap:butt;stroke-linejoin:miter;stroke:rgb(0%,0%,0%);stroke-opacity:1;stroke-dasharray:200,100;stroke-miterlimit:10;" d="M 3177.208426 256 L 4807.065961 256 " transform="matrix(0.0194587,0,0,0.0195309,0,0.0000972933)"/>
</g>
</svg>
