<?xml version="1.0" encoding="utf-8"?>
<!-- Generator: Adobe Illustrator 25.2.3, SVG Export Plug-In . SVG Version: 6.00 Build 0)  -->
<svg version="1.1" id="_x32_" xmlns="http://www.w3.org/2000/svg" xmlns:xlink="http://www.w3.org/1999/xlink" x="0px" y="0px"
	 viewBox="0 0 5139.1 512" style="enable-background:new 0 0 5139.1 512;" xml:space="preserve">
<style type="text/css">
	.st0{fill:none;stroke:#000000;stroke-width:60;stroke-miterlimit:10;stroke-dasharray:200,100;}
	.st1{fill:#231815;stroke:#000000;stroke-width:60;stroke-miterlimit:10;stroke-dasharray:200,100;}
</style>
<line class="st0" x1="310.5" y1="256" x2="1940.4" y2="256"/>
<line class="st0" x1="3177.2" y1="256" x2="4807.1" y2="256"/>
<path class="st1" d="M1997.6,680.5"/>
<g>
	<path d="M2352.9,19.2c-46.4,23.8-54.8,96.6-36.6,155.8c14.2,46.1,44,107.7,93.8,165.5c46.8,54.4,111.9,103,161.4,130.9
		c63.6,35.9,154,58.2,200.4,34.4c23.5-12,58.2-44.6,59.7-50.3c0,0-20.8-24.2-25.4-29.5l-69.8-81.1c-5.2-6-37.3-0.1-53.5,7.1
		c-21.9,9.8-41.9,35.8-41.9,35.8c-15,6.9-27.7,0.3-54.3-8.8c-32.6-11.2-69.5-46.5-98.9-78.5c-26.9-33.3-54.8-73.2-55.5-100.7
		c-0.6-22.4-3.5-33.9,10.6-42c0,0,38.8-4.1,59-15.9c15-8.7,34.5-29.2,29.3-35.3l-69.8-81.1c-4.6-5.3-25.4-29.5-25.4-29.5
		C2428.8-4.8,2376.4,7.2,2352.9,19.2z"/>
</g>
</svg>
